<svg width="128" height="49" viewBox="0 0 128 49" fill="none" xmlns="http://www.w3.org/2000/svg">
<rect x="0.5" y="0.5" width="127" height="48" rx="7.5" fill="#1F1F1F"/>
<rect x="0.5" y="0.5" width="127" height="48" rx="7.5" stroke="#404040" stroke-dasharray="16 6"/>
<path d="M26.46 26.4844C26.46 26.252 26.4235 26.0469 26.3506 25.8691C26.2822 25.6868 26.1592 25.5228 25.9814 25.377C25.8083 25.2311 25.5667 25.0921 25.2568 24.96C24.9515 24.8278 24.5641 24.6934 24.0947 24.5566C23.6025 24.4108 23.1582 24.249 22.7617 24.0713C22.3652 23.889 22.0257 23.6816 21.7432 23.4492C21.4606 23.2168 21.2441 22.9502 21.0938 22.6494C20.9434 22.3486 20.8682 22.0046 20.8682 21.6172C20.8682 21.2298 20.9479 20.8721 21.1074 20.5439C21.2669 20.2158 21.4948 19.931 21.791 19.6895C22.0918 19.4434 22.4495 19.252 22.8643 19.1152C23.279 18.9785 23.7415 18.9102 24.252 18.9102C24.9993 18.9102 25.6328 19.0537 26.1523 19.3408C26.6764 19.6234 27.0752 19.9948 27.3486 20.4551C27.6221 20.9108 27.7588 21.3984 27.7588 21.918H26.4463C26.4463 21.5443 26.3665 21.2139 26.207 20.9268C26.0475 20.6351 25.806 20.4072 25.4824 20.2432C25.1589 20.0745 24.7487 19.9902 24.252 19.9902C23.7826 19.9902 23.3952 20.0609 23.0898 20.2021C22.7845 20.3434 22.5566 20.5348 22.4062 20.7764C22.2604 21.0179 22.1875 21.2936 22.1875 21.6035C22.1875 21.8132 22.2308 22.0046 22.3174 22.1777C22.4085 22.3464 22.5475 22.5036 22.7344 22.6494C22.9258 22.7952 23.1673 22.9297 23.459 23.0527C23.7552 23.1758 24.1084 23.2943 24.5186 23.4082C25.0837 23.5677 25.5713 23.7454 25.9814 23.9414C26.3916 24.1374 26.7288 24.3584 26.9932 24.6045C27.262 24.846 27.4603 25.1217 27.5879 25.4316C27.7201 25.737 27.7861 26.0833 27.7861 26.4707C27.7861 26.8763 27.7041 27.2432 27.54 27.5713C27.376 27.8994 27.1413 28.1797 26.8359 28.4121C26.5306 28.6445 26.1637 28.8245 25.7354 28.9521C25.3115 29.0752 24.8376 29.1367 24.3135 29.1367C23.8532 29.1367 23.3997 29.0729 22.9531 28.9453C22.5111 28.8177 22.1077 28.6263 21.7432 28.3711C21.3831 28.1159 21.0938 27.8014 20.875 27.4277C20.6608 27.0495 20.5537 26.612 20.5537 26.1152H21.8662C21.8662 26.457 21.9323 26.751 22.0645 26.9971C22.1966 27.2386 22.3766 27.4391 22.6045 27.5986C22.8369 27.7581 23.099 27.8766 23.3906 27.9541C23.6868 28.027 23.9945 28.0635 24.3135 28.0635C24.7738 28.0635 25.1634 27.9997 25.4824 27.8721C25.8014 27.7445 26.043 27.5622 26.207 27.3252C26.3757 27.0882 26.46 26.8079 26.46 26.4844ZM30.541 18.5V29H29.2764V18.5H30.541ZM30.2402 25.0215L29.7139 25.001C29.7184 24.4951 29.7936 24.028 29.9395 23.5996C30.0853 23.1667 30.2904 22.7907 30.5547 22.4717C30.819 22.1527 31.1335 21.9066 31.498 21.7334C31.8672 21.5557 32.2751 21.4668 32.7217 21.4668C33.0863 21.4668 33.4144 21.5169 33.7061 21.6172C33.9977 21.7129 34.2461 21.8678 34.4512 22.082C34.6608 22.2962 34.8203 22.5742 34.9297 22.916C35.0391 23.2533 35.0938 23.6657 35.0938 24.1533V29H33.8223V24.1396C33.8223 23.7523 33.7653 23.4424 33.6514 23.21C33.5374 22.973 33.3711 22.8021 33.1523 22.6973C32.9336 22.5879 32.6647 22.5332 32.3457 22.5332C32.0312 22.5332 31.7441 22.5993 31.4844 22.7314C31.2292 22.8636 31.0081 23.0459 30.8213 23.2783C30.639 23.5107 30.4954 23.7773 30.3906 24.0781C30.2904 24.3743 30.2402 24.6888 30.2402 25.0215ZM36.6523 25.3838V25.2266C36.6523 24.6934 36.7298 24.1989 36.8848 23.7432C37.0397 23.2829 37.263 22.8841 37.5547 22.5469C37.8464 22.2051 38.1995 21.9408 38.6143 21.7539C39.029 21.5625 39.4938 21.4668 40.0088 21.4668C40.5283 21.4668 40.9954 21.5625 41.4102 21.7539C41.8294 21.9408 42.1849 22.2051 42.4766 22.5469C42.7728 22.8841 42.9984 23.2829 43.1533 23.7432C43.3083 24.1989 43.3857 24.6934 43.3857 25.2266V25.3838C43.3857 25.917 43.3083 26.4115 43.1533 26.8672C42.9984 27.3229 42.7728 27.7217 42.4766 28.0635C42.1849 28.4007 41.8317 28.665 41.417 28.8564C41.0068 29.0433 40.542 29.1367 40.0225 29.1367C39.5029 29.1367 39.0358 29.0433 38.6211 28.8564C38.2064 28.665 37.8509 28.4007 37.5547 28.0635C37.263 27.7217 37.0397 27.3229 36.8848 26.8672C36.7298 26.4115 36.6523 25.917 36.6523 25.3838ZM37.917 25.2266V25.3838C37.917 25.7529 37.9603 26.1016 38.0469 26.4297C38.1335 26.7533 38.2633 27.0404 38.4365 27.291C38.6143 27.5417 38.8353 27.7399 39.0996 27.8857C39.3639 28.027 39.6715 28.0977 40.0225 28.0977C40.3688 28.0977 40.6719 28.027 40.9316 27.8857C41.196 27.7399 41.4147 27.5417 41.5879 27.291C41.7611 27.0404 41.891 26.7533 41.9775 26.4297C42.0687 26.1016 42.1143 25.7529 42.1143 25.3838V25.2266C42.1143 24.862 42.0687 24.5179 41.9775 24.1943C41.891 23.8662 41.7588 23.5768 41.5811 23.3262C41.4079 23.071 41.1891 22.8704 40.9248 22.7246C40.665 22.5788 40.3597 22.5059 40.0088 22.5059C39.6624 22.5059 39.3571 22.5788 39.0928 22.7246C38.833 22.8704 38.6143 23.071 38.4365 23.3262C38.2633 23.5768 38.1335 23.8662 38.0469 24.1943C37.9603 24.5179 37.917 24.862 37.917 25.2266ZM46.2363 23.0254V31.8438H44.9648V21.6035H46.127L46.2363 23.0254ZM51.2197 25.2402V25.3838C51.2197 25.9215 51.1559 26.4206 51.0283 26.8809C50.9007 27.3366 50.7139 27.7331 50.4678 28.0703C50.2262 28.4076 49.9277 28.6696 49.5723 28.8564C49.2168 29.0433 48.8089 29.1367 48.3486 29.1367C47.8792 29.1367 47.4645 29.0592 47.1045 28.9043C46.7445 28.7493 46.4391 28.5238 46.1885 28.2275C45.9378 27.9313 45.7373 27.5758 45.5869 27.1611C45.4411 26.7464 45.3408 26.2793 45.2861 25.7598V24.9941C45.3408 24.4473 45.4434 23.9574 45.5938 23.5244C45.7441 23.0915 45.9424 22.7223 46.1885 22.417C46.4391 22.1071 46.7422 21.8724 47.0977 21.7129C47.4531 21.5488 47.8633 21.4668 48.3281 21.4668C48.793 21.4668 49.2054 21.5579 49.5654 21.7402C49.9255 21.918 50.2285 22.1732 50.4746 22.5059C50.7207 22.8385 50.9053 23.2373 51.0283 23.7021C51.1559 24.1624 51.2197 24.6751 51.2197 25.2402ZM49.9482 25.3838V25.2402C49.9482 24.8711 49.9095 24.5247 49.832 24.2012C49.7546 23.873 49.6338 23.5859 49.4697 23.3398C49.3102 23.0892 49.1051 22.8932 48.8545 22.752C48.6038 22.6061 48.3053 22.5332 47.959 22.5332C47.64 22.5332 47.362 22.5879 47.125 22.6973C46.8926 22.8066 46.6943 22.9548 46.5303 23.1416C46.3662 23.3239 46.2318 23.5335 46.127 23.7705C46.0267 24.0029 45.9515 24.2445 45.9014 24.4951V26.2656C45.9925 26.5846 46.1201 26.8854 46.2842 27.168C46.4482 27.446 46.667 27.6715 46.9404 27.8447C47.2139 28.0133 47.5579 28.0977 47.9727 28.0977C48.3145 28.0977 48.6084 28.027 48.8545 27.8857C49.1051 27.7399 49.3102 27.5417 49.4697 27.291C49.6338 27.0404 49.7546 26.7533 49.832 26.4297C49.9095 26.1016 49.9482 25.7529 49.9482 25.3838ZM64.1533 19.0469V29H62.8271L57.8164 21.3232V29H56.4971V19.0469H57.8164L62.8477 26.7441V19.0469H64.1533ZM65.9648 25.3838V25.2266C65.9648 24.6934 66.0423 24.1989 66.1973 23.7432C66.3522 23.2829 66.5755 22.8841 66.8672 22.5469C67.1589 22.2051 67.512 21.9408 67.9268 21.7539C68.3415 21.5625 68.8063 21.4668 69.3213 21.4668C69.8408 21.4668 70.3079 21.5625 70.7227 21.7539C71.1419 21.9408 71.4974 22.2051 71.7891 22.5469C72.0853 22.8841 72.3109 23.2829 72.4658 23.7432C72.6208 24.1989 72.6982 24.6934 72.6982 25.2266V25.3838C72.6982 25.917 72.6208 26.4115 72.4658 26.8672C72.3109 27.3229 72.0853 27.7217 71.7891 28.0635C71.4974 28.4007 71.1442 28.665 70.7295 28.8564C70.3193 29.0433 69.8545 29.1367 69.335 29.1367C68.8154 29.1367 68.3483 29.0433 67.9336 28.8564C67.5189 28.665 67.1634 28.4007 66.8672 28.0635C66.5755 27.7217 66.3522 27.3229 66.1973 26.8672C66.0423 26.4115 65.9648 25.917 65.9648 25.3838ZM67.2295 25.2266V25.3838C67.2295 25.7529 67.2728 26.1016 67.3594 26.4297C67.446 26.7533 67.5758 27.0404 67.749 27.291C67.9268 27.5417 68.1478 27.7399 68.4121 27.8857C68.6764 28.027 68.984 28.0977 69.335 28.0977C69.6813 28.0977 69.9844 28.027 70.2441 27.8857C70.5085 27.7399 70.7272 27.5417 70.9004 27.291C71.0736 27.0404 71.2035 26.7533 71.29 26.4297C71.3812 26.1016 71.4268 25.7529 71.4268 25.3838V25.2266C71.4268 24.862 71.3812 24.5179 71.29 24.1943C71.2035 23.8662 71.0713 23.5768 70.8936 23.3262C70.7204 23.071 70.5016 22.8704 70.2373 22.7246C69.9775 22.5788 69.6722 22.5059 69.3213 22.5059C68.9749 22.5059 68.6696 22.5788 68.4053 22.7246C68.1455 22.8704 67.9268 23.071 67.749 23.3262C67.5758 23.5768 67.446 23.8662 67.3594 24.1943C67.2728 24.5179 67.2295 24.862 67.2295 25.2266ZM76.1572 27.6875L78.0576 21.6035H78.8916L78.7275 22.8135L76.793 29H75.9795L76.1572 27.6875ZM74.8789 21.6035L76.499 27.7559L76.6152 29H75.7607L73.6143 21.6035H74.8789ZM80.71 27.708L82.2549 21.6035H83.5127L81.3662 29H80.5186L80.71 27.708ZM79.0762 21.6035L80.9355 27.585L81.1475 29H80.3408L78.3516 22.7998L78.1875 21.6035H79.0762Z" fill="white"/>
<path fill-rule="evenodd" clip-rule="evenodd" d="M94.875 17.125L104.25 17.125C104.416 17.125 104.575 17.1908 104.692 17.3081C104.809 17.4253 104.875 17.5842 104.875 17.75V27.125C104.875 27.4702 104.595 27.75 104.25 27.75C103.905 27.75 103.625 27.4702 103.625 27.125V19.2589L92.1919 30.6919C91.9479 30.936 91.5521 30.936 91.3081 30.6919C91.064 30.4479 91.064 30.0521 91.3081 29.8081L102.741 18.375L94.875 18.375C94.5298 18.375 94.25 18.0952 94.25 17.75C94.25 17.4048 94.5298 17.125 94.875 17.125Z" fill="white"/>
<path d="M17 0.500153L8.5 0.500153C4.08172 0.500153 0.5 4.08187 0.5 8.50015V16.9989" stroke="#AE9B84"/>
<path d="M111 0.5L119.5 0.5C123.918 0.5 127.5 4.08172 127.5 8.5V16.9988" stroke="#AE9B84"/>
<path d="M127.5 31.999L127.5 40.499C127.5 44.9173 123.918 48.499 119.5 48.499L111.001 48.499" stroke="#AE9B84"/>
<path d="M0.500976 31.999L0.500976 40.499C0.500977 44.9173 4.08269 48.499 8.50097 48.499L16.9997 48.499" stroke="#AE9B84"/>
</svg>
